<svg width="321" height="326" viewBox="0 0 321 326" fill="none" xmlns="http://www.w3.org/2000/svg">
<path id="Star 7" d="M195.355 2.092C196.689 -0.678323 200.831 0.113026 201.05 3.18009L208.328 105.121C208.459 106.956 210.195 108.242 211.988 107.833L311.627 85.0938C314.625 84.4096 316.589 88.1414 314.327 90.2249L239.164 159.474C237.811 160.721 237.888 162.879 239.326 164.026L319.228 227.75C321.632 229.667 319.939 233.529 316.9 233.06L215.895 217.471C214.077 217.191 212.437 218.597 212.437 220.436L212.434 322.637C212.434 325.712 208.359 326.796 206.831 324.128L156.043 235.44C155.129 233.844 153.007 233.438 151.569 234.585L71.6636 298.304C69.2595 300.221 65.871 297.711 67.0045 294.852L104.678 199.849C105.356 198.139 104.35 196.227 102.557 195.818L2.91916 173.073C-0.0785947 172.389 -0.228783 168.174 2.71266 167.278L100.479 137.499C102.238 136.963 103.105 134.985 102.307 133.328L57.9669 41.2465C56.6329 38.4761 59.8341 35.7311 62.3686 37.4722L146.607 95.3414C148.123 96.3828 150.211 95.8274 151.009 94.1704L195.355 2.092Z"/>
</svg>
