<svg width="2993" height="2849" viewBox="0 0 2993 2849" fill="none" xmlns="http://www.w3.org/2000/svg">
<path d="M1467.97 20.8114C1476.95 -6.82797 1516.05 -6.8278 1525.03 20.8115L1857.63 1044.45C1861.65 1056.81 1873.17 1065.18 1886.16 1065.18H2962.48C2991.54 1065.18 3003.62 1102.36 2980.11 1119.45L2109.35 1752.09C2098.84 1759.73 2094.44 1773.27 2098.46 1785.63L2431.05 2809.26C2440.04 2836.9 2408.4 2859.89 2384.89 2842.8L1514.13 2210.16C1503.62 2202.52 1489.38 2202.52 1478.87 2210.16L608.111 2842.8C584.599 2859.89 552.965 2836.9 561.946 2809.26L894.545 1785.63C898.561 1773.27 894.161 1759.73 883.646 1752.09L12.8908 1119.45C-10.6206 1102.36 1.46266 1065.18 30.5244 1065.18H1106.84C1119.83 1065.18 1131.35 1056.81 1135.37 1044.45L1467.97 20.8114Z" stroke-width="120" stroke="#000" />
</svg>
