<svg width="319" height="219" viewBox="0 0 319 219" fill="none" xmlns="http://www.w3.org/2000/svg">
<path d="M178.901 38.3396C193.756 53.7488 201.536 64.9622 204.145 72.7701C238.989 101.944 275.937 117.701 269.499 52.9814C257.562 -67.0016 277.146 48.6748 285.196 98.0892C319.036 89.0103 337.465 93.7236 288.404 118.044C288.404 118.044 287.135 109.987 285.196 98.0892C253.91 106.483 209.452 126.666 192.979 154.044C219.654 199.273 226.093 242.624 196.821 203.388C183.366 185.353 184.178 168.672 192.979 154.044C172.355 119.076 139.636 82.9846 101.972 83.0693C46.9485 155.362 -46.7302 241.063 28.2561 133.349C53.5904 96.9574 78.723 83.1215 101.972 83.0693C107.918 75.2565 113.413 67.6004 118.195 60.3619C91.8332 42.7064 78.5497 21.3106 115.821 11.7401C146.753 3.79724 139.657 27.8727 118.195 60.3619C153.929 84.2947 213.695 101.355 204.145 72.7701C158.837 34.8356 117.086 -25.784 178.901 38.3396Z" fill="#3C38F9"/>
</svg>
