<svg width="2993" height="2849" viewBox="0 0 2993 2849" fill="none" xmlns="http://www.w3.org/2000/svg">
<path d="M1524.08 21.1205L1856.68 1044.76C1860.83 1057.53 1872.73 1066.18 1886.16 1066.18H2962.48C2990.57 1066.18 3002.25 1102.12 2979.52 1118.64L2108.77 1751.28C2097.9 1759.17 2093.35 1773.16 2097.5 1785.94L2430.1 2809.57C2438.78 2836.29 2408.2 2858.51 2385.48 2841.99L1514.72 2209.35C1503.86 2201.46 1489.14 2201.46 1478.28 2209.35L607.523 2841.99C584.795 2858.51 554.215 2836.29 562.897 2809.57L895.496 1785.94C899.646 1773.16 895.099 1759.17 884.234 1751.28L13.4785 1118.64C-9.24915 1102.12 2.43138 1066.18 30.5244 1066.18H1106.84C1120.27 1066.18 1132.17 1057.53 1136.32 1044.76L1468.92 21.1204C1477.6 -5.59763 1515.4 -5.59749 1524.08 21.1205Z" stroke="black" stroke-width="2"/>
</svg>
